<?xml version="1.0" encoding="UTF-8"?>
<svg id="Layer_2" data-name="Layer 2" xmlns="http://www.w3.org/2000/svg" viewBox="0 0 123.53 123.41">
  <defs>
    <style>
      .cls-1 {
        fill: #231f20;
      }
    </style>
  </defs>
  <g id="Layer_1-2" data-name="Layer 1">
    <g>
      <path class="cls-1" d="M61.68,20.48L41.21,0c-5.24,5.24-8.48,12.48-8.48,20.48,0,15.99,12.96,28.96,28.96,28.96s28.96-12.96,28.96-28.96c0-8-3.24-15.24-8.48-20.48l-20.48,20.48Z"/>
      <path class="cls-1" d="M103.05,61.84l20.48-20.48c-5.24-5.24-12.48-8.48-20.48-8.48-15.99,0-28.96,12.96-28.96,28.96s12.96,28.96,28.96,28.96c8,0,15.24-3.24,20.48-8.48l-20.48-20.48Z"/>
      <path class="cls-1" d="M20.48,61.84L0,41.37c5.24-5.24,12.48-8.48,20.48-8.48,15.99,0,28.96,12.96,28.96,28.96s-12.96,28.96-28.96,28.96c-8,0-15.24-3.24-20.48-8.48l20.48-20.48Z"/>
      <path class="cls-1" d="M61.57,102.94l-20.48,20.48c-5.24-5.24-8.48-12.48-8.48-20.48,0-15.99,12.96-28.96,28.96-28.96,15.99,0,28.96,12.96,28.96,28.96,0,8-3.24,15.24-8.48,20.48l-20.48-20.48Z"/>
    </g>
  </g>
</svg>